<svg width="30" height="31" viewBox="0 0 30 31" fill="none" xmlns="http://www.w3.org/2000/svg">
<path d="M28.0001 17.5001H4.00006V6.25008C3.9989 5.82641 4.08179 5.40672 4.24392 5.01531C4.40606 4.62389 4.64422 4.26852 4.94462 3.96977L4.96962 3.94477C5.44041 3.47467 6.04486 3.16138 6.70038 3.04771C7.35591 2.93403 8.03054 3.02551 8.63212 3.30964C8.06398 4.25426 7.82783 5.36167 7.96121 6.45588C8.09458 7.55009 8.58983 8.56835 9.36825 9.34883L10.0527 10.0333L8.79287 11.2931L10.207 12.7073L11.4668 11.4475L18.4474 4.46702L19.7072 3.20721L18.293 1.79302L17.0331 3.05283L16.3487 2.36839C15.5292 1.55122 14.449 1.04749 13.2963 0.944977C12.1436 0.842461 10.9914 1.14766 10.0406 1.80739C9.03801 1.17421 7.84985 0.900866 6.67134 1.03225C5.49283 1.16364 4.39405 1.69195 3.5555 2.53039L3.5305 2.55539C3.04378 3.03945 2.6579 3.61524 2.3952 4.24944C2.1325 4.88363 1.99819 5.56363 2.00006 6.25008V17.5001H6.10352e-05V19.5001H2.00006V21.4188C2.00002 21.5801 2.02602 21.7402 2.07706 21.8931L3.93756 27.4744C4.03685 27.7732 4.22776 28.0331 4.48319 28.2173C4.73862 28.4014 5.04556 28.5003 5.36044 28.5001H6.16669L5.43756 31.0001H7.52087L8.25006 28.5001H21.2563L22.0063 31.0001H24.0938L23.3438 28.5001H24.6394C24.9544 28.5004 25.2614 28.4015 25.5168 28.2173C25.7723 28.0332 25.9633 27.7732 26.0626 27.4744L27.9229 21.8931C27.974 21.7402 28 21.5801 28.0001 21.4188V19.5001H30.0001V17.5001H28.0001ZM10.7826 3.78258C11.3336 3.23278 12.0802 2.92401 12.8585 2.92401C13.6369 2.92401 14.3835 3.23278 14.9345 3.78258L15.6188 4.46702L11.467 8.61883L10.7826 7.93452C10.2328 7.38351 9.92404 6.63692 9.92404 5.85855C9.92404 5.08018 10.2328 4.33359 10.7826 3.78258ZM26.0001 21.3376L24.2793 26.5001H5.72081L4.00006 21.3376V19.5001H26.0001V21.3376Z" fill="#070707"/>
</svg>
