<svg width="26" height="24" viewBox="0 0 26 24" fill="none" xmlns="http://www.w3.org/2000/svg">
<path d="M18.6 0.800049C19.6156 0.799892 20.5932 1.18602 21.3345 1.88011C22.0758 2.5742 22.5254 3.52429 22.592 4.53765L22.6 4.80005V8.88005C23.4573 9.05539 24.2336 9.50693 24.8098 10.1655C25.386 10.8241 25.7305 11.6534 25.7904 12.5265L25.8 12.8V22.4C25.8004 22.6 25.7259 22.7928 25.5912 22.9405C25.4565 23.0882 25.2714 23.1802 25.0723 23.1982C24.8732 23.2163 24.6746 23.1592 24.5155 23.0381C24.3564 22.917 24.2484 22.7408 24.2128 22.5441L24.2 22.4V18.4H1.80001V22.4C1.80038 22.6 1.72589 22.7928 1.5912 22.9405C1.45651 23.0882 1.27139 23.1802 1.0723 23.1982C0.873201 23.2163 0.674557 23.1592 0.515482 23.0381C0.356406 22.917 0.248429 22.7408 0.212812 22.5441L0.200012 22.4V12.8C0.199824 11.8779 0.518239 10.9841 1.10137 10.2697C1.6845 9.55539 2.49652 9.06447 3.40001 8.88005V4.80005C3.39986 3.7845 3.78598 2.80691 4.48008 2.06558C5.17417 1.32424 6.12425 0.874669 7.13761 0.808049L7.40001 0.800049H18.6ZM21.8 10.4H4.20001C3.60365 10.4 3.02865 10.6221 2.58704 11.0228C2.14543 11.4236 1.86886 11.9745 1.81121 12.568L1.80001 12.8V16.8H24.2V12.8C24.2 12.2037 23.978 11.6287 23.5772 11.1871C23.1764 10.7455 22.6256 10.4689 22.032 10.4112L21.8 10.4ZM18.6 2.40005H7.40001C6.8034 2.40008 6.22819 2.62232 5.78654 3.02344C5.3449 3.42456 5.06849 3.97579 5.01121 4.56965L5.00001 4.80005V8.80005H6.60001V8.00005C6.60001 7.78788 6.6843 7.58439 6.83433 7.43436C6.98436 7.28433 7.18784 7.20005 7.40001 7.20005H11.4C11.6122 7.20005 11.8157 7.28433 11.9657 7.43436C12.1157 7.58439 12.2 7.78788 12.2 8.00005V8.80005H13.8V8.00005C13.8 7.78788 13.8843 7.58439 14.0343 7.43436C14.1844 7.28433 14.3878 7.20005 14.6 7.20005H18.6C18.8122 7.20005 19.0157 7.28433 19.1657 7.43436C19.3157 7.58439 19.4 7.78788 19.4 8.00005V8.80005H21V4.80005C21 4.20369 20.778 3.62868 20.3772 3.18708C19.9764 2.74547 19.4256 2.4689 18.832 2.41125L18.6 2.40005Z" fill="#070707"/>
</svg>
