<svg width="21" height="27" viewBox="0 0 21 27" fill="none" xmlns="http://www.w3.org/2000/svg">
<path d="M10.4999 26.625C8.65797 25.0538 6.95063 23.3314 5.39576 21.4756C3.06243 18.6887 0.291597 14.5383 0.291597 10.5833C0.290585 8.56348 0.888796 6.58872 2.01052 4.90899C3.13225 3.22925 4.72707 1.92004 6.59315 1.14703C8.45923 0.374025 10.5127 0.171977 12.4936 0.566459C14.4746 0.96094 16.294 1.93422 17.7216 3.36312C18.6721 4.30937 19.4254 5.43473 19.9381 6.67408C20.4508 7.91342 20.7125 9.24214 20.7083 10.5833C20.7083 14.5383 17.9374 18.6887 15.6041 21.4756C14.0492 23.3314 12.3419 25.0538 10.4999 26.625ZM10.4999 6.20832C9.33961 6.20832 8.22681 6.66926 7.40634 7.48973C6.58587 8.3102 6.12493 9.423 6.12493 10.5833C6.12493 11.7436 6.58587 12.8564 7.40634 13.6769C8.22681 14.4974 9.33961 14.9583 10.4999 14.9583C11.6603 14.9583 12.7731 14.4974 13.5935 13.6769C14.414 12.8564 14.8749 11.7436 14.8749 10.5833C14.8749 9.423 14.414 8.3102 13.5935 7.48973C12.7731 6.66926 11.6603 6.20832 10.4999 6.20832Z" fill="#F15A29"/>
</svg>
