<svg width="177" height="41" viewBox="0 0 177 41" fill="none" xmlns="http://www.w3.org/2000/svg">
<g clip-path="url(#clip0_11_5716)">
<path d="M4.99988 36.4419V15.5328L25.6059 0.381287V36.4419H4.99988Z" fill="#F15A29"/>
<path d="M35.3027 40.3813V22.4593L18.333 9.47225V40.3813H35.3027Z" fill="#FA8334"/>
</g>
<path d="M55.4462 21.4013V25.3773H63.3982V29.3813H51.2462V9.78129H63.2302V13.7573H55.4462V17.3973H62.5582V21.4013H55.4462ZM69.6186 19.3573C69.6186 19.6746 69.8146 19.9173 70.2066 20.0853C70.5986 20.2346 71.2239 20.3933 72.0826 20.5613C73.1839 20.7853 74.0986 21.0373 74.8266 21.3173C75.5546 21.5786 76.1893 22.0266 76.7306 22.6613C77.2906 23.2773 77.5706 24.136 77.5706 25.2373C77.5706 26.1893 77.2813 27.0106 76.7026 27.7013C76.1239 28.3733 75.3586 28.8866 74.4066 29.2413C73.4546 29.5773 72.4279 29.7453 71.3266 29.7453C69.8146 29.7453 68.5266 29.4746 67.4626 28.9333C66.3986 28.3733 65.5959 27.552 65.0546 26.4693L68.3306 24.7893C68.7786 25.984 69.7773 26.5813 71.3266 26.5813C71.9613 26.5813 72.5119 26.4693 72.9786 26.2453C73.4639 26.0026 73.7066 25.6666 73.7066 25.2373C73.7066 24.864 73.4826 24.584 73.0346 24.3973C72.6053 24.2106 71.9146 24.0146 70.9626 23.8093C69.8799 23.5666 68.9746 23.3146 68.2466 23.0533C67.5186 22.7733 66.8933 22.3533 66.3706 21.7933C65.8479 21.2146 65.5866 20.4493 65.5866 19.4973C65.5866 18.5826 65.8479 17.7893 66.3706 17.1173C66.8933 16.4266 67.5933 15.904 68.4706 15.5493C69.3666 15.1946 70.3373 15.0173 71.3826 15.0173C72.6146 15.0173 73.7253 15.2693 74.7146 15.7733C75.7039 16.2773 76.4786 17.0053 77.0386 17.9573L73.7906 19.5533C73.5666 19.0866 73.2586 18.7413 72.8666 18.5173C72.4933 18.2933 71.9986 18.1813 71.3826 18.1813C70.8413 18.1813 70.4119 18.2933 70.0946 18.5173C69.7773 18.7226 69.6186 19.0026 69.6186 19.3573ZM84.7778 24.3973C84.7778 24.92 84.9178 25.284 85.1978 25.4893C85.4964 25.6946 85.9444 25.7973 86.5418 25.7973C86.9151 25.7973 87.3258 25.7693 87.7738 25.7133V29.3813C86.8404 29.4746 86.0658 29.5213 85.4498 29.5213C83.8818 29.5213 82.7058 29.176 81.9218 28.4853C81.1564 27.776 80.7738 26.4973 80.7738 24.6493V18.9373H78.3658V15.3813H80.7738V12.1333L84.7778 10.7893V15.3813H87.7178V18.9373H84.7778V24.3973ZM100.766 15.3813H104.742V29.3813H100.766V28.3173C100.15 28.784 99.4684 29.1386 98.7218 29.3813C97.9938 29.6426 97.2564 29.7733 96.5098 29.7733C95.0538 29.7733 93.7938 29.456 92.7298 28.8213C91.6844 28.1866 90.8818 27.3186 90.3218 26.2173C89.7618 25.0973 89.4818 23.828 89.4818 22.4093C89.4818 20.9906 89.7618 19.7213 90.3218 18.6013C90.8818 17.4626 91.6844 16.576 92.7298 15.9413C93.7938 15.3066 95.0538 14.9893 96.5098 14.9893C97.2751 14.9893 98.0218 15.12 98.7498 15.3813C99.4778 15.6426 100.15 16.0066 100.766 16.4733V15.3813ZM97.0418 25.9653C98.0871 25.9653 98.9644 25.6293 99.6738 24.9573C100.383 24.2853 100.738 23.4173 100.738 22.3533C100.738 21.3266 100.383 20.4866 99.6738 19.8333C98.9644 19.18 98.0871 18.8533 97.0418 18.8533C95.9964 18.8533 95.1378 19.18 94.4658 19.8333C93.7938 20.4866 93.4578 21.3453 93.4578 22.4093C93.4578 23.4733 93.7938 24.332 94.4658 24.9853C95.1378 25.6386 95.9964 25.9653 97.0418 25.9653ZM113.024 24.3973C113.024 24.92 113.164 25.284 113.444 25.4893C113.743 25.6946 114.191 25.7973 114.788 25.7973C115.161 25.7973 115.572 25.7693 116.02 25.7133V29.3813C115.087 29.4746 114.312 29.5213 113.696 29.5213C112.128 29.5213 110.952 29.176 110.168 28.4853C109.403 27.776 109.02 26.4973 109.02 24.6493V18.9373H106.612V15.3813H109.02V12.1333L113.024 10.7893V15.3813H115.964V18.9373H113.024V24.3973ZM124.897 15.0173C126.26 15.0173 127.473 15.344 128.537 15.9973C129.62 16.6506 130.46 17.5373 131.057 18.6573C131.655 19.7773 131.953 21.0186 131.953 22.3813C131.953 22.904 131.916 23.38 131.841 23.8093H121.481C121.836 24.668 122.312 25.312 122.909 25.7413C123.507 26.152 124.281 26.3573 125.233 26.3573C125.812 26.3573 126.372 26.236 126.913 25.9933C127.473 25.7506 127.912 25.424 128.229 25.0133L131.253 26.8053C130.6 27.7573 129.751 28.4853 128.705 28.9893C127.679 29.4933 126.493 29.7453 125.149 29.7453C123.637 29.7453 122.303 29.428 121.145 28.7933C119.988 28.14 119.092 27.2533 118.457 26.1333C117.823 25.0133 117.505 23.7626 117.505 22.3813C117.505 21 117.813 19.7493 118.429 18.6293C119.064 17.5093 119.941 16.632 121.061 15.9973C122.181 15.344 123.46 15.0173 124.897 15.0173ZM128.201 20.7013C128.071 19.992 127.697 19.4413 127.081 19.0493C126.484 18.6573 125.747 18.4613 124.869 18.4613C123.955 18.4613 123.161 18.6853 122.489 19.1333C121.817 19.5626 121.463 20.0853 121.425 20.7013H128.201ZM142.089 9.78129C143.284 9.78129 144.376 10.0706 145.365 10.6493C146.355 11.228 147.139 12.0213 147.717 13.0293C148.315 14.0186 148.613 15.1106 148.613 16.3053C148.613 17.4813 148.315 18.5733 147.717 19.5813C147.139 20.5706 146.345 21.364 145.337 21.9613C144.348 22.54 143.265 22.8293 142.089 22.8293H138.981V29.3813H134.781V9.78129H142.089ZM142.089 18.8253C142.78 18.8253 143.368 18.5826 143.853 18.0973C144.357 17.5933 144.609 16.996 144.609 16.3053C144.609 15.596 144.367 14.9986 143.881 14.5133C143.396 14.028 142.799 13.7853 142.089 13.7853H138.981V18.8253H142.089ZM159.784 15.1013L159.504 18.8813C159.373 18.8253 159.158 18.7973 158.86 18.7973C157.721 18.7973 156.788 19.124 156.06 19.7773C155.35 20.412 154.996 21.252 154.996 22.2973V29.3813H150.992V15.3813H154.996V17.6493C155.332 16.9213 155.873 16.3146 156.62 15.8293C157.366 15.344 158.272 15.1013 159.336 15.1013H159.784ZM167.8 29.8013C166.456 29.8013 165.214 29.4746 164.076 28.8213C162.956 28.1493 162.06 27.244 161.388 26.1053C160.734 24.9666 160.408 23.7346 160.408 22.4093C160.408 21.0653 160.734 19.8333 161.388 18.7133C162.06 17.5746 162.956 16.6786 164.076 16.0253C165.214 15.3533 166.456 15.0173 167.8 15.0173C169.125 15.0173 170.348 15.3533 171.468 16.0253C172.606 16.6786 173.502 17.5746 174.156 18.7133C174.828 19.8333 175.164 21.0653 175.164 22.4093C175.164 23.7346 174.828 24.9666 174.156 26.1053C173.502 27.244 172.606 28.1493 171.468 28.8213C170.348 29.4746 169.125 29.8013 167.8 29.8013ZM167.772 25.7973C168.705 25.7973 169.508 25.4706 170.18 24.8173C170.852 24.1453 171.188 23.3426 171.188 22.4093C171.188 21.476 170.852 20.6733 170.18 20.0013C169.508 19.3293 168.705 18.9933 167.772 18.9933C166.838 18.9933 166.036 19.3293 165.364 20.0013C164.71 20.6733 164.384 21.476 164.384 22.4093C164.384 23.3426 164.71 24.1453 165.364 24.8173C166.036 25.4706 166.838 25.7973 167.772 25.7973Z" fill="white"/>
<defs>
<clipPath id="clip0_11_5716">
<rect width="40" height="40" fill="white" transform="translate(0 0.381287)"/>
</clipPath>
</defs>
</svg>
