<svg width="23" height="24" viewBox="0 0 23 24" fill="none" xmlns="http://www.w3.org/2000/svg">
<path d="M22.167 7.42849V1.33325M22.167 1.33325H16.0718M22.167 1.33325L9.97655 13.5237M9.97655 7.42849V13.5237M9.97655 13.5237H16.0718" stroke="#070707" stroke-width="1.1027" stroke-linecap="round" stroke-linejoin="round"/>
<path d="M13.0244 1.33325H3.88151C3.07323 1.33325 2.29806 1.65434 1.72652 2.22588C1.15498 2.79742 0.833893 3.57259 0.833893 4.38087V19.619C0.833893 20.4272 1.15498 21.2024 1.72652 21.774C2.29806 22.3455 3.07323 22.6666 3.88151 22.6666H19.1196C19.9279 22.6666 20.7031 22.3455 21.2746 21.774C21.8461 21.2024 22.1672 20.4272 22.1672 19.619V10.4761" stroke="#070707" stroke-width="1.1027" stroke-linecap="round" stroke-linejoin="round"/>
</svg>
