<svg xmlns="http://www.w3.org/2000/svg" width="177" height="41" fill="none" viewBox="0 0 177 41"><g clip-path="url(#a)"><path fill="#F15A29" d="M5 36.442v-20.91L25.606.383v36.06z"/><path fill="#FA8334" d="M35.303 40.381V22.46L18.333 9.472v30.91z"/></g><path fill="#fff" d="M55.446 21.401v3.976h7.952v4.004H51.246v-19.6H63.23v3.976h-7.784v3.64h7.112v4.004zm14.173-2.044q0 .476.588.728.588.224 1.876.476 1.651.336 2.744.756 1.091.393 1.904 1.344.84.924.84 2.576 0 1.428-.868 2.464-.869 1.009-2.296 1.54a9.2 9.2 0 0 1-3.08.504q-2.268 0-3.864-.812a5.5 5.5 0 0 1-2.408-2.464l3.276-1.68q.671 1.792 2.996 1.792.951 0 1.652-.336.728-.363.728-1.008 0-.56-.672-.84-.645-.279-2.072-.588-1.624-.363-2.716-.756a5 5 0 0 1-1.876-1.26q-.784-.867-.784-2.296-.001-1.371.784-2.38.783-1.035 2.1-1.568a7.8 7.8 0 0 1 2.912-.532q1.847 0 3.332.756a5.6 5.6 0 0 1 2.324 2.184l-3.248 1.596q-.336-.7-.924-1.036-.56-.336-1.484-.336-.813 0-1.288.336-.477.309-.476.84m15.159 5.04q0 .785.42 1.092.447.308 1.344.308.56 0 1.232-.084v3.668q-1.4.14-2.324.14-2.352 0-3.528-1.036-1.148-1.064-1.148-3.836v-5.712h-2.408v-3.556h2.408v-3.248l4.004-1.344v4.592h2.94v3.556h-2.94zm15.988-9.016h3.976v14h-3.976v-1.064a6.9 6.9 0 0 1-2.044 1.064 6.5 6.5 0 0 1-2.212.392q-2.184 0-3.78-.952a6.36 6.36 0 0 1-2.408-2.604q-.84-1.68-.84-3.808 0-2.127.84-3.808.84-1.707 2.408-2.66 1.596-.951 3.78-.952 1.148 0 2.24.392 1.092.393 2.016 1.092zm-3.724 10.584q1.567 0 2.632-1.008 1.064-1.008 1.064-2.604 0-1.539-1.064-2.52-1.065-.98-2.632-.98-1.569 0-2.576.98t-1.008 2.576q0 1.596 1.008 2.576 1.007.98 2.576.98m15.982-1.568q0 .785.42 1.092.448.308 1.344.308.56 0 1.232-.084v3.668q-1.4.14-2.324.14-2.352 0-3.528-1.036-1.148-1.064-1.148-3.836v-5.712h-2.408v-3.556h2.408v-3.248l4.004-1.344v4.592h2.94v3.556h-2.94zm11.873-9.38q2.044 0 3.64.98a6.77 6.77 0 0 1 2.52 2.66q.897 1.68.896 3.724 0 .784-.112 1.428h-10.36q.532 1.289 1.428 1.932.897.616 2.324.616.868 0 1.68-.364.84-.363 1.316-.98l3.024 1.792a6.4 6.4 0 0 1-2.548 2.184q-1.54.756-3.556.756-2.267 0-4.004-.952-1.735-.98-2.688-2.66-.951-1.68-.952-3.752 0-2.072.924-3.752a6.86 6.86 0 0 1 2.632-2.632q1.68-.98 3.836-.98m3.304 5.684q-.196-1.064-1.12-1.652-.895-.588-2.212-.588-1.371 0-2.38.672-1.007.645-1.064 1.568zm13.888-10.92q1.793 0 3.276.868a6.4 6.4 0 0 1 2.352 2.38q.897 1.485.896 3.276a6.3 6.3 0 0 1-.896 3.276 6.6 6.6 0 0 1-2.38 2.38 6.3 6.3 0 0 1-3.248.868h-3.108v6.552h-4.2v-19.6zm0 9.044q1.036 0 1.764-.728.756-.756.756-1.792 0-1.063-.728-1.792-.727-.728-1.792-.728h-3.108v5.04zm17.695-3.724-.28 3.78q-.197-.084-.644-.084-1.708 0-2.8.98-1.065.953-1.064 2.52v7.084h-4.004v-14h4.004v2.268q.504-1.091 1.624-1.82 1.12-.728 2.716-.728zm8.016 14.7a7.35 7.35 0 0 1-3.724-.98 7.65 7.65 0 0 1-2.688-2.716 7.3 7.3 0 0 1-.98-3.696q0-2.016.98-3.696a7.4 7.4 0 0 1 2.688-2.688 7.2 7.2 0 0 1 3.724-1.008 7 7 0 0 1 3.668 1.008 7.16 7.16 0 0 1 2.688 2.688 7.05 7.05 0 0 1 1.008 3.696 7.15 7.15 0 0 1-1.008 3.696 7.37 7.37 0 0 1-2.688 2.716 7.15 7.15 0 0 1-3.668.98m-.028-4.004q1.4 0 2.408-.98 1.008-1.008 1.008-2.408t-1.008-2.408-2.408-1.008-2.408 1.008a3.33 3.33 0 0 0-.98 2.408q0 1.4.98 2.408 1.008.98 2.408.98"/><defs><clipPath id="a"><path fill="#fff" d="M0 .381h40v40H0z"/></clipPath></defs></svg>